<svg width="14" height="16" viewBox="0 0 14 16" fill="none" xmlns="http://www.w3.org/2000/svg">
  <path fill-rule="evenodd" clip-rule="evenodd"
        d="M3.88889 4.57143C3.88889 2.88828 5.28178 1.52381 7 1.52381C8.71822 1.52381 10.1111 2.88828 10.1111 4.57143V6.85714H3.88889V4.57143ZM2.33333 6.85714V4.57143C2.33333 2.0467 4.42267 0 7 0C9.57733 0 11.6667 2.0467 11.6667 4.57143V6.85714H12.4444C13.3036 6.85714 14 7.53938 14 8.38095V14.4762C14 15.3178 13.3036 16 12.4444 16H1.55556C0.696446 16 0 15.3178 0 14.4762V8.38095C0 7.53938 0.696446 6.85714 1.55556 6.85714H2.33333Z"
        fill="currentColor"/>
</svg>
